<svg width="37" height="23" viewBox="0 0 37 23" fill="none" xmlns="http://www.w3.org/2000/svg">
<path d="M7.44 14.3753C7.44 13.0521 8.51452 11.9795 9.84 11.9795C11.1655 11.9795 12.24 13.0521 12.24 14.3753C12.24 15.6985 11.1655 16.7712 9.84 16.7712C8.51452 16.7712 7.44 15.6985 7.44 14.3753Z" fill="white"/>
<path fill-rule="evenodd" clip-rule="evenodd" d="M30.72 15.6927L15.6 23L15.6 18.7411L24.8122 14.2889L15.6 9.98278V5.75L30.72 12.8177V15.6927ZM12.72 5.75H8.64C3.86826 5.75 0 9.61154 0 14.375C0 19.1385 3.86826 23 8.64 23H12.72V19.1667H8.64C5.98903 19.1667 3.84 17.0214 3.84 14.375C3.84 11.7286 5.98903 9.58333 8.64 9.58333H12.72V5.75Z" fill="white"/>
<path d="M15.6 5.75L19.44 7.54688V21.2031L15.6 23V5.75Z" fill="white"/>
<path d="M32.3199 2.55566H36.16V23.0001H32.3199V2.55566Z" fill="white"/>
</svg>
