<svg width="30" height="30" viewBox="0 0 30 30" fill="none" xmlns="http://www.w3.org/2000/svg">
<path d="M2.50151 29.5L2.50089 29.5L2.48858 29.4997C2.47617 29.4993 2.45565 29.4983 2.4282 29.4964C2.37313 29.4925 2.2912 29.4843 2.19157 29.4677C1.98995 29.4341 1.72875 29.3679 1.47361 29.2403C1.22042 29.1137 0.982447 28.9317 0.80665 28.668C0.63294 28.4074 0.5 28.0375 0.5 27.5C0.5 26.3784 1.07527 24.0068 3.16605 21.9161C5.24218 19.8399 8.85545 18 15 18C21.1446 18 24.7578 19.8399 26.8339 21.9161C28.9247 24.0068 29.5 26.3784 29.5 27.5C29.5 28.0375 29.3671 28.4074 29.1933 28.668C29.0176 28.9317 28.7796 29.1137 28.5264 29.2403C28.2712 29.3679 28.0101 29.4341 27.8084 29.4677C27.7088 29.4843 27.6269 29.4925 27.5718 29.4964C27.5443 29.4983 27.5238 29.4993 27.5114 29.4997L27.4991 29.5L27.4985 29.5H2.50151ZM19.9497 12.4497C18.637 13.7625 16.8565 14.5 15 14.5C13.1435 14.5 11.363 13.7625 10.0503 12.4497C8.7375 11.137 8 9.35651 8 7.5C8 5.64348 8.7375 3.86301 10.0503 2.55025C11.363 1.2375 13.1435 0.5 15 0.5C16.8565 0.5 18.637 1.2375 19.9497 2.55025C21.2625 3.86301 22 5.64348 22 7.5C22 9.35652 21.2625 11.137 19.9497 12.4497Z" stroke="#3831B7"/>
</svg>
