<svg width="29" height="29" viewBox="0 0 29 29" fill="none" xmlns="http://www.w3.org/2000/svg">
<path d="M22.3381 28.5488C22.0671 28.548 21.7971 28.5183 21.5325 28.4601C16.4951 27.4181 11.8542 24.9748 8.14416 21.4115C4.51326 17.8404 1.99503 13.2936 0.894164 8.32126C0.764358 7.70155 0.796218 7.05887 0.986678 6.45504C1.17714 5.85121 1.51979 5.30655 1.98166 4.87348L5.20389 1.77209C5.36847 1.61644 5.56402 1.49726 5.77778 1.4223C5.99154 1.34735 6.2187 1.31831 6.44444 1.33709C6.67851 1.36151 6.90438 1.43691 7.10618 1.55799C7.30798 1.67907 7.4808 1.84288 7.6125 2.03792L11.6403 7.99098C11.7913 8.22196 11.8642 8.49534 11.8483 8.77086C11.8323 9.04639 11.7284 9.30952 11.5517 9.52153L9.52972 11.9382C10.335 13.7205 11.4754 15.3313 12.8889 16.6829C14.2932 18.0836 15.9531 19.2021 17.7786 19.9776L20.2839 17.9879C20.4943 17.8216 20.7503 17.7233 21.018 17.706C21.2856 17.6888 21.5522 17.7534 21.7822 17.8913L27.8642 21.8224C28.0729 21.947 28.2507 22.1172 28.3843 22.3203C28.5179 22.5234 28.6037 22.7541 28.6355 22.9951C28.6673 23.2361 28.6441 23.4812 28.5677 23.7119C28.4913 23.9427 28.3637 24.1532 28.1944 24.3276L25.0528 27.4371C24.6959 27.7922 24.2723 28.0732 23.8064 28.264C23.3405 28.4548 22.8415 28.5516 22.3381 28.5488ZM6.31555 2.93209L3.09333 6.03348C2.8335 6.27559 2.64116 6.58116 2.53523 6.92014C2.4293 7.25912 2.41342 7.61983 2.48916 7.96681C3.5128 12.6327 5.86583 16.9023 9.26389 20.2596C12.7553 23.6119 17.1226 25.9101 21.8628 26.8893C22.2216 26.9643 22.5934 26.9491 22.9449 26.8451C23.2963 26.7411 23.6165 26.5514 23.8767 26.2932L27.0183 23.1838L21.1458 19.3896L18.4553 21.5324C18.3523 21.6139 18.2309 21.669 18.1017 21.6929C17.9726 21.7167 17.8395 21.7086 17.7142 21.6693C15.4801 20.8462 13.4556 19.5396 11.7853 17.8429C10.0576 16.2296 8.71661 14.2469 7.86222 12.0429C7.82607 11.9095 7.82487 11.769 7.85873 11.635C7.89259 11.501 7.96037 11.3779 8.05555 11.2776L10.2306 8.6757L6.31555 2.93209Z" fill="#3831B7"/>
</svg>
