<svg width="23" height="23" viewBox="0 0 23 23" fill="none" xmlns="http://www.w3.org/2000/svg">
<g clip-path="url(#clip0)">
<path d="M22.6803 19.1254L19.4375 22.3422C18.9589 22.8331 18.3244 22.9994 17.7065 23.0001C14.9739 22.9183 12.3909 21.576 10.2702 20.1977C6.7891 17.6652 3.59505 14.525 1.59041 10.7302C0.821557 9.13897 -0.0805803 7.10863 0.00561221 5.33247C0.013298 4.66432 0.19335 4.00857 0.663911 3.5779L3.90664 0.336797C4.58001 -0.23596 5.23119 -0.0379304 5.6621 0.629223L8.27089 5.57618C8.54547 6.16224 8.38796 6.79017 7.97829 7.20895L6.7836 8.40303C6.70984 8.50406 6.66289 8.61906 6.6617 8.74422C7.11982 10.5176 8.5077 12.152 9.73375 13.2769C10.9598 14.4017 12.2776 15.9257 13.9883 16.2864C14.1998 16.3454 14.4588 16.3661 14.61 16.2255L15.9998 14.8121C16.4789 14.449 17.1706 14.2715 17.6821 14.5684H17.7065L22.4121 17.3465C23.1029 17.7795 23.1749 18.6163 22.6803 19.1254Z" fill="white"/>
</g>
<defs>
<clipPath id="clip0">
<rect width="23" height="23" fill="white"/>
</clipPath>
</defs>
</svg>
