<svg viewBox="0 0 34 28" fill="none" xmlns="http://www.w3.org/2000/svg">
<path d="M1.07798e-08 7.91891L16.4653 16.4823C16.6304 16.5682 16.8138 16.613 17 16.613C17.1862 16.613 17.3696 16.5682 17.5347 16.4823L34 7.92045V22.7955C34.0001 24.0784 33.5092 25.3127 32.6281 26.2453C31.7471 27.1778 30.5425 27.7378 29.2616 27.8105L28.9773 27.8182H5.02273C3.73979 27.8183 2.50545 27.3274 1.57292 26.4463C0.640385 25.5652 0.0803616 24.3607 0.00772746 23.0798L1.07798e-08 22.7955V7.91891ZM5.02273 1.07798e-08H28.9773C30.2602 -8.39904e-05 31.4946 0.490765 32.4271 1.37186C33.3596 2.25295 33.9196 3.45748 33.9923 4.73836L34 5.02273V5.30709L17 14.1471L1.07798e-08 5.30709V5.02273C-8.39904e-05 3.73979 0.490765 2.50545 1.37186 1.57292C2.25295 0.640385 3.45748 0.0803616 4.73836 0.00772746L5.02273 1.07798e-08H28.9773H5.02273Z" fill="#3831B7"/>
</svg>
