<svg width="181" height="54" viewBox="0 0 181 54" fill="none" xmlns="http://www.w3.org/2000/svg">
<path d="M41.54 45.1C40.7267 45.1 40.1333 44.9933 39.76 44.78V42.88C40.1867 43.0933 40.66 43.2 41.18 43.2C41.7267 43.2 42.1867 43 42.56 42.6C42.9467 42.2 43.3333 41.5467 43.72 40.64L39.42 31.18H41.82L44.78 38.1L47.64 31.18H49.98L45.28 42.06C44.4 44.0867 43.1533 45.1 41.54 45.1ZM54.1258 41H51.9658V31.18H54.1258V34.9L58.0058 31.18H60.7658L56.1058 35.58L61.4658 41H58.5058L54.1258 36.56V41ZM69.0516 30.92C70.4382 30.92 71.5782 31.42 72.4716 32.42C73.3649 33.4067 73.8116 34.6333 73.8116 36.1C73.8116 37.5533 73.3649 38.7733 72.4716 39.76C71.5782 40.76 70.4382 41.26 69.0516 41.26C67.5449 41.26 66.3782 40.7267 65.5516 39.66V45H63.3916V31.18H65.5516V32.52C66.3782 31.4533 67.5449 30.92 69.0516 30.92ZM68.4716 32.82C67.8449 32.82 67.2716 32.9867 66.7516 33.32C66.2316 33.64 65.8316 34.06 65.5516 34.58V37.62C65.8316 38.1267 66.2316 38.5467 66.7516 38.88C67.2849 39.2 67.8582 39.36 68.4716 39.36C69.3782 39.36 70.1316 39.0467 70.7316 38.42C71.3316 37.78 71.6316 37.0067 71.6316 36.1C71.6316 35.18 71.3316 34.4067 70.7316 33.78C70.1316 33.14 69.3782 32.82 68.4716 32.82ZM80.7845 41.26C79.3045 41.26 78.0512 40.7733 77.0245 39.8C75.9979 38.8133 75.4845 37.5667 75.4845 36.06C75.4845 34.5533 75.9979 33.32 77.0245 32.36C78.0645 31.4 79.3245 30.92 80.8045 30.92C81.9245 30.92 82.9112 31.1467 83.7645 31.6V33.46C82.8712 33.0333 81.9912 32.82 81.1245 32.82C80.1379 32.82 79.3112 33.1267 78.6445 33.74C77.9779 34.3667 77.6445 35.1467 77.6445 36.08C77.6445 37.0267 77.9779 37.8133 78.6445 38.44C79.3112 39.0533 80.1379 39.36 81.1245 39.36C82.1779 39.36 83.1112 39.1133 83.9245 38.62V40.46C82.9912 40.9933 81.9445 41.26 80.7845 41.26ZM92.2352 41H86.5752V31.18H91.9352C92.8952 31.18 93.6485 31.4133 94.1952 31.88C94.7418 32.3333 95.0152 32.9333 95.0152 33.68C95.0152 34.16 94.8952 34.5933 94.6552 34.98C94.4285 35.3533 94.1285 35.6267 93.7552 35.8C95.0352 36.1733 95.6752 37.0133 95.6752 38.32C95.6752 39.16 95.3685 39.82 94.7552 40.3C94.1552 40.7667 93.3152 41 92.2352 41ZM88.7352 36.84V39.26H91.8552C92.3618 39.26 92.7552 39.1533 93.0352 38.94C93.3285 38.7267 93.4752 38.4333 93.4752 38.06C93.4752 37.6733 93.3285 37.3733 93.0352 37.16C92.7552 36.9467 92.3618 36.84 91.8552 36.84H88.7352ZM88.7352 32.92V35.1H91.4152C91.8818 35.1 92.2418 35.0067 92.4952 34.82C92.7618 34.62 92.8952 34.3533 92.8952 34.02C92.8952 33.2867 92.4018 32.92 91.4152 32.92H88.7352ZM97.4963 36.08C97.4963 34.6 97.9629 33.3733 98.8963 32.4C99.8429 31.4133 101.056 30.92 102.536 30.92C103.55 30.92 104.41 31.1867 105.116 31.72C106.503 32.7067 107.196 34.1867 107.196 36.16V36.72H99.6763C99.8096 37.5467 100.203 38.1933 100.856 38.66C101.523 39.1267 102.363 39.36 103.376 39.36C104.496 39.36 105.55 39.0667 106.536 38.48V40.3C105.63 40.94 104.423 41.26 102.916 41.26C101.41 41.26 100.123 40.78 99.0563 39.82C98.0163 38.86 97.4963 37.6133 97.4963 36.08ZM99.6963 35.08H105.016C104.99 34.4667 104.756 33.9267 104.316 33.46C103.863 32.98 103.236 32.74 102.436 32.74C101.676 32.74 101.043 32.9667 100.536 33.42C100.043 33.86 99.7629 34.4133 99.6963 35.08ZM113.806 41H111.646V33.08H108.326V31.18H117.106V33.08H113.806V41ZM123.599 39.36C124.506 39.36 125.273 39.0467 125.899 38.42C126.513 37.8067 126.819 37.0267 126.819 36.08C126.819 35.1467 126.513 34.3733 125.899 33.76C125.273 33.1333 124.506 32.82 123.599 32.82C122.679 32.82 121.906 33.1333 121.279 33.76C120.666 34.3733 120.359 35.1467 120.359 36.08C120.359 37.0267 120.666 37.8067 121.279 38.42C121.906 39.0467 122.679 39.36 123.599 39.36ZM123.599 41.26C122.026 41.26 120.733 40.76 119.719 39.76C118.706 38.76 118.199 37.5333 118.199 36.08C118.199 34.64 118.706 33.42 119.719 32.42C120.733 31.42 122.026 30.92 123.599 30.92C125.146 30.92 126.433 31.42 127.459 32.42C128.473 33.42 128.979 34.64 128.979 36.08C128.979 37.52 128.473 38.7467 127.459 39.76C126.433 40.76 125.146 41.26 123.599 41.26ZM132.047 43.7H129.967V39.1H131.247C131.767 38.3133 132.127 37.3467 132.327 36.2C132.527 35.0933 132.64 33.42 132.667 31.18H140.487V39.1H142.187V43.7H140.147V41H132.047V43.7ZM133.527 39.1H138.327V33.08H134.647C134.647 35.6267 134.274 37.6333 133.527 39.1ZM146.369 41H144.349V31.18H146.509V37.84L151.809 31.18H153.829V41H151.669V34.32L146.369 41ZM161.607 39.36C162.514 39.36 163.281 39.0467 163.907 38.42C164.521 37.8067 164.827 37.0267 164.827 36.08C164.827 35.1467 164.521 34.3733 163.907 33.76C163.281 33.1333 162.514 32.82 161.607 32.82C160.687 32.82 159.914 33.1333 159.287 33.76C158.674 34.3733 158.367 35.1467 158.367 36.08C158.367 37.0267 158.674 37.8067 159.287 38.42C159.914 39.0467 160.687 39.36 161.607 39.36ZM161.607 41.26C160.034 41.26 158.741 40.76 157.727 39.76C156.714 38.76 156.207 37.5333 156.207 36.08C156.207 34.64 156.714 33.42 157.727 32.42C158.741 31.42 160.034 30.92 161.607 30.92C163.154 30.92 164.441 31.42 165.467 32.42C166.481 33.42 166.987 34.64 166.987 36.08C166.987 37.52 166.481 38.7467 165.467 39.76C164.441 40.76 163.154 41.26 161.607 41.26ZM170.055 43.7H167.975V39.1H169.255C169.775 38.3133 170.135 37.3467 170.335 36.2C170.535 35.0933 170.648 33.42 170.675 31.18H178.495V39.1H180.195V43.7H178.155V41H170.055V43.7ZM171.535 39.1H176.335V33.08H172.655C172.655 35.6267 172.281 37.6333 171.535 39.1Z" fill="white"/>
<path d="M16.3348 45.5308C21.3713 48.295 27.2989 48.9469 32.8156 47.3432C33.155 47.2405 33.4404 47.0083 33.6097 46.6967C33.7791 46.385 33.8187 46.0194 33.7202 45.6788C33.6216 45.338 33.393 45.0499 33.0833 44.8768C32.7738 44.7037 32.4086 44.6596 32.0667 44.754C27.2319 46.1583 22.0371 45.586 17.6238 43.163C15.443 41.9978 13.5177 40.4077 11.9613 38.4863C10.4051 36.565 9.24942 34.3514 8.56249 31.9763C7.87555 29.6011 7.67127 27.1124 7.96163 24.657C8.25218 22.2015 9.03148 19.8292 10.2536 17.6798C12.6969 13.2787 16.7827 10.0233 21.6184 8.62478C26.4542 7.22619 31.6469 7.79806 36.0623 10.2155C38.2272 11.3748 40.1404 12.9524 41.691 14.8567C43.2416 16.761 44.3988 18.9541 45.0954 21.309C45.2253 21.8172 45.1515 22.3561 44.8897 22.8108C44.628 23.2655 44.1989 23.5998 43.6941 23.7425C43.1894 23.8854 42.6488 23.8254 42.1876 23.5753C41.7265 23.3252 41.3813 22.9049 41.2256 22.4039C41.212 22.3572 41.1959 22.3113 41.1775 22.2665C40.0239 18.7109 37.5404 15.7389 34.2463 13.9719C30.8116 12.0931 26.7732 11.6491 23.0124 12.7368C19.2515 13.8245 16.0736 16.3556 14.172 19.7777C13.2201 21.4562 12.6135 23.3081 12.388 25.2244C12.1624 27.1408 12.3224 29.0829 12.8585 30.9365C13.3946 32.79 14.2959 34.5178 15.5096 36.0179C16.7232 37.5179 18.2247 38.7601 19.9256 39.6714C23.3587 41.5551 27.399 41.9992 31.1594 40.9059C31.7534 40.7401 32.3089 40.458 32.7935 40.0763C33.2779 39.6944 33.682 39.2205 33.9823 38.6816C34.2826 38.1427 34.4731 37.5498 34.543 36.9369C34.6128 36.324 34.5606 35.7034 34.3892 35.1108C34.2178 34.5181 33.9307 33.9655 33.5445 33.4845C33.1583 33.0035 32.6806 32.6038 32.139 32.3084C31.5975 32.013 31.0028 31.828 30.3893 31.7636C29.7758 31.6995 29.1555 31.7575 28.5646 31.9343C28.5268 31.9452 28.492 31.958 28.4566 31.9715C28.4195 31.979 28.3825 31.987 28.3455 31.9977C27.3149 32.305 26.2163 32.299 25.1888 31.9808C24.1616 31.6627 23.2521 31.0464 22.5755 30.2105C21.8991 29.3745 21.4861 28.3563 21.3891 27.2854C21.2922 26.2142 21.5154 25.1386 22.0308 24.1946C22.5462 23.2507 23.3303 22.4812 24.2837 21.9837C25.2372 21.4861 26.3169 21.283 27.3859 21.4002C28.455 21.5172 29.4652 21.9493 30.2883 22.6414C31.1114 23.3335 31.7104 24.2546 32.0092 25.2876C32.0567 25.4596 32.1378 25.6204 32.2479 25.7607C32.358 25.901 32.4948 26.0181 32.6505 26.1051C32.8061 26.1922 32.9776 26.2476 33.1548 26.2678C33.332 26.2882 33.5115 26.2731 33.6828 26.2236C33.8541 26.174 34.0139 26.091 34.1529 25.9791C34.2919 25.8675 34.4073 25.7291 34.4925 25.5724C34.5777 25.4157 34.6309 25.2437 34.6491 25.0663C34.6673 24.8888 34.65 24.7095 34.5984 24.5388C34.1465 23.0081 33.2513 21.6455 32.0259 20.623C30.8004 19.6005 29.2995 18.9639 27.7126 18.7934C26.1257 18.623 24.5239 18.9264 23.1092 19.6653C21.6945 20.4043 20.5305 21.5456 19.7637 22.9454C18.9971 24.3452 18.6622 25.9407 18.8013 27.5308C18.9404 29.1206 19.5474 30.6338 20.5455 31.8792C21.5436 33.1245 22.8882 34.0465 24.4097 34.5285C25.9312 35.0106 27.5614 35.0311 29.0945 34.5877C29.1323 34.5767 29.1671 34.564 29.2025 34.5505C29.2397 34.543 29.2767 34.535 29.3137 34.5243C29.5644 34.4462 29.8282 34.4191 30.0898 34.4443C30.3512 34.4695 30.605 34.5467 30.8361 34.6711C31.0674 34.7956 31.2716 34.9651 31.4366 35.1694C31.6015 35.3737 31.7241 35.6091 31.7971 35.8613C31.87 36.1135 31.892 36.378 31.8616 36.6388C31.8311 36.8996 31.7489 37.1519 31.6198 37.3807C31.4908 37.6092 31.3173 37.81 31.1097 37.9708C30.902 38.1318 30.6644 38.2496 30.4107 38.3175C27.3319 39.2116 24.0242 38.8472 21.2139 37.3042C19.8262 36.5633 18.6011 35.5519 17.6107 34.3297C16.6203 33.1075 15.8851 31.6992 15.448 30.188C15.011 28.6769 14.881 27.0936 15.0661 25.5314C15.2512 23.9692 15.7473 22.46 16.5253 21.0928C18.0808 18.2903 20.6824 16.2173 23.7615 15.3268C26.8405 14.4363 30.1469 14.8006 32.9583 16.3401C34.3449 17.0822 35.5692 18.0939 36.5593 19.3158C37.5494 20.5376 38.2854 21.945 38.7239 23.4554C38.7579 23.5715 38.8073 23.6824 38.871 23.7854C39.3588 24.8387 40.2182 25.6746 41.2845 26.1331C42.3508 26.5916 43.5488 26.6403 44.6488 26.2697C45.7487 25.8992 46.673 25.1354 47.2446 24.1252C47.8161 23.115 47.9945 21.9294 47.7456 20.7958C47.7372 20.7478 47.7262 20.7002 47.7128 20.6534C47.7053 20.6273 47.6978 20.6014 47.6902 20.5753C47.6865 20.5625 47.6829 20.55 47.6793 20.5376C47.6757 20.5251 47.6705 20.5127 47.6665 20.5003C46.8669 17.815 45.5437 15.3146 43.7732 13.1431C42.0026 10.9716 39.8198 9.17212 37.3504 7.8483C32.3117 5.0917 26.3871 4.44016 20.8697 6.0359C15.3523 7.6316 10.6903 11.345 7.9008 16.3656C6.50477 18.8262 5.61493 21.5412 5.2841 24.3508C4.95308 27.1604 5.18741 30.0078 5.9734 32.7255C6.75939 35.4432 8.08113 37.976 9.86082 40.1753C11.6403 42.3745 13.8419 44.1953 16.3359 45.5309L16.3348 45.5308Z" fill="url(#paint0_linear)"/>
<defs>
<linearGradient id="paint0_linear" x1="7.95145" y1="16.2626" x2="41.2319" y2="35.0826" gradientUnits="userSpaceOnUse">
<stop stop-color="#5A35AF"/>
<stop offset="0.123" stop-color="#6235AB"/>
<stop offset="0.284" stop-color="#7F3AAB"/>
<stop offset="0.465" stop-color="#D542CD"/>
<stop offset="0.663" stop-color="#EF46A4"/>
<stop offset="0.87" stop-color="#DE6B86"/>
<stop offset="0.99" stop-color="#FF9CB3"/>
</linearGradient>
</defs>
</svg>
