<svg viewBox="0 0 88 88" fill="none" xmlns="http://www.w3.org/2000/svg">
<g clip-path="url(#clip0)">
<path d="M40.8127 83.2472C41.5904 83.1551 42.1353 82.4346 42.0119 81.6613L40.8461 74.355C52.4851 72.2206 62.2042 64.171 66.4456 53.084C70.7811 41.751 68.7401 28.9593 61.0931 19.5382C53.4461 10.1171 41.3476 5.48877 29.365 7.40067C27.3881 7.68739 27.8625 10.6604 29.8305 10.3177C40.7755 8.57135 51.8147 12.7943 58.7997 21.3997C65.7847 30.0051 67.6467 41.6768 63.6867 52.0285C59.8206 62.1344 50.9816 69.4701 40.3807 71.438L39.2192 64.1585C39.0498 63.1006 37.7916 62.6316 36.9713 63.3207L23.7824 74.3989C22.9862 75.0683 23.1898 76.3448 24.1549 76.7331L40.1363 83.157C40.3505 83.2434 40.5831 83.2742 40.8127 83.2472ZM38.9055 79.6915L27.3145 75.0325L36.8801 66.9972L38.9055 79.6915ZM57.5275 27.594C58.0772 27.4844 58.3093 26.8264 57.9499 26.3962C50.5505 17.2802 42.1355 12.0935 30.4123 13.964C29.4238 14.1073 29.661 15.5939 30.645 15.4225C41.8493 13.6348 49.5706 18.4165 56.8032 27.327C56.975 27.5451 57.255 27.6485 57.5275 27.594Z" fill="#38014C"/>
</g>
<defs>
<clipPath id="clip0">
<rect width="76.7043" height="76.7043" fill="white" transform="translate(87.832 75.7462) rotate(170.935)"/>
</clipPath>
</defs>
</svg>
